<svg xmlns="http://www.w3.org/2000/svg" viewBox="0 0 390 280" fill="none">
  <rect width="390" height="280" rx="30" fill="#F8F5EF"/>
  <defs>
    <clipPath id="korea-map">
      <path id="korea-shape-1" d="M20.26 91.26L20.91 90.77L20.96 87.72L28.26 79.26L29.97 78.13L34.31 77.36L50.17 77.48L52.93 76.16L57.31 69.25L62.51 80.95L71.72 93.99L77.76 104.54L79.53 110.18L80.70 118.47L79.84 121.23L80.10 125.57L78.98 129.44L79.22 136.52L80.38 137.72L82.82 136.56L82.58 139.25L79.55 151.02L75.18 159.29L70.20 161.39L60.21 161.41L58.25 163.64L58.79 167.44L51.35 165.79L50.11 163.47L46.64 164.93L43.27 165.23L41.66 166.93L43.85 169.74L43.28 171.35L41.51 172.15L39.20 168.23L36.66 168.68L36.34 170.77L38.25 173.85L34.96 178.09L31.74 175.92L33.60 172.90L33.31 170.46L28.70 174.33L25.87 178.73L24.35 178.41L22.83 176.82L19.77 179.65L19.20 181.90L18.07 181.99L17.02 177.29L13.84 174.78L12.39 172.60L13.17 171.37L17.93 171.95L16.83 170.42L19.39 168.64L15.72 168.67L12.96 160.02L14.44 158.37L17.25 150.93L19.83 149.11L17.12 148.18L17.16 147.12L22.03 143.93L22.79 141.23L20.54 139.91L21.52 137.51L18.27 133.54L18.43 125.39L17.14 119.73L15.04 120.85L10.61 119.79L10.18 117.69L11.39 115.10L17.13 111.53L19.06 111.21L21.38 112.76L23.46 113.07L25.33 116.31L25.48 115.33L27.56 113.31L25.26 112.36L22.65 106.66L23.59 104.00L20.61 100.02L20.74 97.30L18.75 92.97L20.26 91.26Z"/>
      <path id="korea-shape-2" d="M13.72 210.52L11.88 210.75L10.29 208.21L11.01 206.75L13.95 204.33L21.57 202.00L25.95 202.90L26.59 204.76L25.34 207.45L19.15 210.14L13.72 210.52Z"/>
    </clipPath>
    <clipPath id="japan-map">
      <path id="japan-shape-1" d="M177.83 112.17L179.40 111.89L179.22 117.88L181.75 121.67L183.09 126.06L183.00 129.25L182.47 132.04L180.80 133.24L180.02 135.10L179.48 138.25L177.00 138.84L175.99 140.50L176.26 149.58L174.38 152.95L173.30 157.35L175.38 161.80L173.76 162.35L172.50 163.68L171.79 166.57L168.26 168.91L168.14 165.56L170.01 163.02L169.26 162.29L168.20 162.38L166.92 164.57L167.57 165.95L167.10 166.85L165.71 165.54L164.16 165.72L163.36 166.80L163.03 169.58L161.31 171.51L160.78 170.81L161.07 168.39L161.77 167.94L160.50 167.08L159.51 167.41L156.83 171.71L152.37 171.12L149.05 171.83L150.61 170.77L150.52 170.16L148.84 170.22L148.37 169.62L148.23 170.61L147.73 170.51L147.91 167.85L147.27 167.72L146.48 168.30L145.39 170.99L147.79 173.14L147.61 174.10L143.99 175.40L141.13 180.80L139.61 181.46L137.93 180.88L135.69 176.89L135.50 174.42L136.94 173.29L137.68 171.53L135.09 171.41L133.01 170.23L129.60 170.68L127.68 172.32L121.97 174.29L118.62 174.79L116.99 173.85L116.24 174.10L115.09 178.37L112.29 176.49L108.78 177.41L107.67 176.77L106.62 177.17L106.41 174.65L107.20 173.50L109.62 173.32L115.88 167.97L118.90 164.49L120.46 163.67L122.84 163.28L123.59 164.13L127.77 163.71L136.01 161.60L136.64 161.82L136.41 162.96L137.06 163.55L139.50 163.74L141.04 162.83L142.37 161.42L141.76 159.46L142.18 158.35L146.53 152.86L146.68 148.85L147.54 147.23L150.85 146.00L150.95 146.75L147.93 149.56L148.58 150.36L148.74 152.02L150.32 152.76L152.17 151.02L157.74 148.67L159.90 146.44L161.64 143.18L164.95 140.93L166.03 137.39L167.97 134.06L169.79 127.53L169.31 125.50L167.56 124.93L168.71 124.04L169.42 121.94L168.82 119.54L169.11 118.32L171.28 116.80L171.52 114.03L172.01 113.43L173.68 113.73L174.51 116.94L175.81 115.97L177.07 116.48L177.81 115.55L177.94 113.64L174.87 114.23L174.88 113.22L175.81 111.00L177.83 112.17Z"/>
      <path id="japan-shape-2" d="M195.76 88.06L201.91 89.72L206.43 86.21L204.75 90.23L204.84 92.05L206.23 95.21L209.63 94.48L207.37 96.34L203.34 97.86L198.33 98.10L196.76 98.91L193.03 102.98L191.70 106.66L182.13 101.57L179.06 101.85L176.15 103.65L174.24 101.78L172.66 101.74L171.76 102.83L171.60 104.08L172.99 105.50L174.41 105.64L177.29 108.37L176.25 108.97L173.90 108.28L171.21 111.44L169.59 111.28L169.31 110.38L170.09 107.42L169.73 106.07L168.21 104.21L168.38 101.55L172.33 98.27L172.70 97.43L172.05 95.21L177.20 96.29L178.83 95.41L179.00 92.22L180.70 88.91L181.50 84.84L181.65 82.79L180.28 78.93L180.86 76.77L182.73 75.82L189.27 83.20L195.76 88.06Z"/>
      <path id="japan-shape-3" d="M108.38 180.44L111.99 180.44L112.08 181.32L110.89 183.33L113.37 183.50L113.03 184.70L114.10 186.77L111.74 190.43L109.50 199.76L107.66 199.47L107.86 201.06L105.01 203.18L105.72 200.95L105.13 198.24L105.77 197.83L105.63 197.11L104.79 197.00L104.11 198.36L104.00 199.77L104.72 200.96L104.34 201.74L101.65 200.75L101.29 199.72L102.30 199.35L102.49 198.03L101.57 196.56L101.61 193.73L103.00 192.60L104.69 189.08L103.71 188.75L104.05 187.22L102.91 184.93L101.91 184.18L101.14 184.82L101.48 187.05L102.52 187.03L102.62 188.36L100.64 187.75L98.67 189.51L99.07 188.15L98.13 186.83L98.05 185.21L99.08 186.68L100.21 187.04L99.56 185.54L97.37 183.66L97.58 182.72L99.19 182.91L99.06 181.90L102.79 180.16L103.61 178.41L105.21 177.59L106.85 178.08L108.38 180.44Z"/>
      <path id="japan-shape-4" d="M130.37 174.70L132.30 174.96L132.56 178.29L133.00 178.53L130.50 180.39L129.15 183.57L127.61 181.80L125.36 181.25L122.97 182.58L120.83 187.13L119.64 187.92L118.52 187.83L118.98 186.60L117.50 186.47L117.04 185.22L117.62 183.16L116.88 182.83L116.93 181.96L114.31 182.75L118.52 179.68L119.50 177.02L120.54 176.11L122.32 177.54L125.01 176.80L125.43 175.77L125.15 174.81L127.54 173.89L130.37 174.70Z"/>
    </clipPath>
    <clipPath id="china-map">
      <path id="china-shape-1" d="M309.66 182.99L306.49 181.59L306.22 180.02L306.77 179.19L304.50 178.76L303.13 177.50L299.89 179.91L299.11 179.18L297.57 180.18L296.33 179.28L295.50 180.39L294.48 180.07L294.04 180.76L294.53 184.05L293.37 183.92L292.96 182.25L290.70 183.08L290.14 181.44L288.34 181.06L289.15 178.65L287.59 177.96L287.13 175.83L287.52 175.18L284.44 175.81L284.79 174.86L284.35 173.66L285.06 171.80L287.09 169.97L287.07 164.86L286.22 164.93L285.73 163.16L284.67 162.09L283.85 162.93L281.33 162.35L282.06 161.30L281.70 160.44L280.98 160.82L281.51 159.85L280.73 159.26L279.17 160.48L277.31 159.66L273.99 161.70L272.57 163.74L270.90 164.39L269.19 163.35L265.86 162.70L263.42 165.63L262.77 163.31L260.35 164.13L257.90 163.27L257.41 163.80L256.75 163.24L256.40 163.85L255.64 162.75L254.29 162.64L254.38 161.81L252.12 160.86L251.81 159.93L250.56 160.04L246.83 156.63L245.31 156.59L244.57 157.49L239.71 153.41L238.87 153.71L238.81 151.75L237.97 150.07L239.98 150.12L238.79 145.60L239.38 144.74L237.71 143.69L237.13 141.22L232.61 140.23L231.97 139.52L231.80 137.72L228.25 136.26L230.05 135.52L229.50 134.87L229.36 132.47L226.86 131.87L226.44 129.35L227.11 128.96L227.32 127.57L229.36 126.26L231.11 125.83L231.40 126.79L232.95 126.65L234.38 124.64L237.33 124.49L238.83 123.04L242.45 121.59L242.28 119.73L243.18 119.11L242.82 118.60L243.78 118.25L242.74 115.45L243.04 113.60L241.57 113.10L245.98 111.71L247.99 112.38L248.20 111.48L247.49 110.97L249.22 106.22L253.47 107.28L255.17 106.58L255.67 102.85L257.75 102.20L258.24 100.76L258.96 100.46L260.81 100.31L261.21 102.12L266.87 104.75L268.60 108.07L268.54 109.65L267.71 111.18L268.23 112.17L274.63 112.92L279.07 114.91L279.01 115.62L281.58 119.57L293.97 120.11L295.57 121.25L299.33 122.47L301.24 122.09L301.24 122.74L302.41 122.93L306.75 120.86L313.23 120.36L319.26 116.60L317.97 114.64L319.17 112.56L323.27 113.51L325.63 111.59L328.34 111.38L330.48 108.89L332.35 108.68L332.60 108.01L338.49 107.75L338.11 106.32L335.17 103.83L333.40 103.82L332.39 104.82L330.96 104.17L328.87 104.72L327.96 103.39L330.77 98.33L333.65 99.26L337.01 97.60L336.78 96.59L338.97 93.02L340.62 91.53L340.40 90.13L338.97 89.93L339.04 89.47L341.20 87.98L346.83 87.17L352.50 88.70L354.18 90.74L357.20 97.18L357.11 98.39L361.82 99.63L364.38 101.21L365.37 104.65L369.04 104.63L373.44 102.66L374.35 103.02L374.56 104.63L373.14 105.87L372.40 109.02L370.59 112.36L367.53 111.77L365.42 113.22L366.09 117.60L365.63 119.02L364.07 119.55L364.32 120.12L362.79 118.74L362.31 120.38L360.43 121.61L358.30 121.76L358.89 122.90L358.56 123.55L355.10 122.57L353.32 125.00L350.66 126.33L349.15 127.93L345.69 128.90L341.63 131.49L341.49 130.93L342.88 130.37L343.21 129.54L341.90 129.54L341.88 129.06L344.29 126.21L343.25 124.79L341.65 125.01L339.97 127.01L337.33 128.44L336.33 130.15L333.44 130.29L333.13 132.41L336.24 133.55L336.27 135.68L337.08 136.26L338.23 136.21L339.43 134.64L340.62 134.18L342.78 135.30L345.27 135.47L344.48 137.17L343.49 136.79L340.77 137.77L340.35 139.27L339.25 139.06L339.50 139.71L336.78 143.10L339.45 144.82L340.87 149.64L343.25 151.92L343.08 152.52L340.07 151.31L338.89 151.81L340.54 151.67L343.25 154.43L340.98 156.43L339.28 156.88L341.86 156.69L343.85 157.99L342.46 159.14L343.58 159.13L343.45 160.19L342.32 160.20L342.88 160.73L342.38 161.66L342.71 162.71L341.58 162.61L340.62 163.55L338.91 167.67L337.81 167.22L338.52 168.56L337.51 169.40L336.72 169.20L337.88 169.55L337.89 171.38L336.82 171.21L337.08 171.86L336.33 171.93L335.55 173.68L333.58 174.12L334.10 174.81L332.43 176.77L331.32 176.60L330.25 178.69L324.31 179.99L323.10 178.23L322.65 178.80L323.18 180.85L322.06 180.90L320.84 182.19L320.29 181.59L320.16 182.29L319.29 181.97L318.46 182.84L315.95 183.87L315.57 183.50L314.95 184.68L315.81 185.95L315.41 186.62L314.29 186.41L313.76 184.76L314.41 183.08L313.52 182.45L312.51 183.24L310.89 181.81L310.94 182.62L309.66 182.99Z"/>
      <path id="china-shape-2" d="M316.73 187.53L317.03 188.53L314.74 192.14L313.41 192.83L311.43 191.88L311.34 189.58L312.79 187.85L316.15 187.09L316.73 187.53Z"/>
    </clipPath>
  </defs>
  <g id="korea-flag" clip-path="url(#korea-map)">
    <rect x="8" y="65" width="77" height="150" fill="#FFFFFF"/>
    <path id="korea-taegeuk-red" fill="#CD2E3A" d="M30.5 140a16 16 0 0 1 32 0 8 8 0 0 0-16 0 8 8 0 0 1-16 0Z"/>
    <path id="korea-taegeuk-blue" fill="#0047A0" d="M62.5 140a16 16 0 0 1-32 0 8 8 0 0 0 16 0 8 8 0 0 1 16 0Z"/>
    <g id="korea-trigrams" stroke="#111111" stroke-width="2" stroke-linecap="square">
      <g id="korea-geon" data-pattern="111" transform="translate(26 111) rotate(-32)">
        <path d="M-7-5H7M-7 0H7M-7 5H7"/>
      </g>
      <g id="korea-gon" data-pattern="000" transform="translate(65 170) rotate(-32)">
        <path d="M-7-5h5m4 0h5M-7 0h5m4 0h5M-7 5h5m4 0h5"/>
      </g>
      <g id="korea-gam" data-pattern="010" transform="translate(65 111) rotate(35)">
        <path d="M-7-5h5m4 0h5M-7 0H7M-7 5h5m4 0h5"/>
      </g>
      <g id="korea-ri" data-pattern="101" transform="translate(27 170) rotate(35)">
        <path d="M-7-5H7M-7 0h5m4 0h5M-7 5H7"/>
      </g>
    </g>
  </g>
  <g id="japan-flag" clip-path="url(#japan-map)">
    <rect x="94" y="72" width="119" height="135" fill="#FFFFFF"/>
    <circle id="japan-sun" cx="153.5" cy="139.5" r="22" fill="#BC002D"/>
  </g>
  <g id="china-flag" clip-path="url(#china-map)">
    <rect x="222" y="84" width="157" height="112" fill="#DE2910"/>
    <g id="china-stars" fill="#FFDE00">
      <polygon id="china-star-main" points="263.00,109.00 266.06,117.79 275.36,117.98 267.95,123.61 270.64,132.52 263.00,127.20 255.36,132.52 258.05,123.61 250.64,117.98 259.94,117.79"/>
      <polygon id="china-star-1" data-points-to="#china-star-main" points="278.02,123.50 281.51,122.67 281.94,119.11 283.80,122.17 287.32,121.48 284.99,124.20 286.73,127.33 283.43,125.95 280.99,128.58 281.27,125.01"/>
      <polygon id="china-star-2" data-points-to="#china-star-main" points="291.08,127.11 294.62,126.55 295.33,123.05 296.95,126.24 300.51,125.83 297.97,128.36 299.45,131.62 296.27,129.98 293.63,132.40 294.20,128.87"/>
      <polygon id="china-star-3" data-points-to="#china-star-main" points="286.86,138.19 290.32,139.12 292.39,136.20 292.58,139.77 296.00,140.84 292.65,142.12 292.70,145.70 290.44,142.92 287.05,144.07 289.00,141.06"/>
      <polygon id="china-star-4" data-points-to="#china-star-main" points="276.23,141.84 279.08,144.00 282.10,142.08 280.93,145.46 283.69,147.74 280.11,147.66 278.80,151.00 277.76,147.57 274.19,147.35 277.12,145.31"/>
    </g>
  </g>
  <g id="korea-outline" fill="none" stroke="#153C33" stroke-width="1.8" stroke-linejoin="round">
    <use href="#korea-shape-1"/>
    <use href="#korea-shape-2"/>
  </g>
  <g id="japan-outline" fill="none" stroke="#153C33" stroke-width="1.8" stroke-linejoin="round">
    <use href="#japan-shape-1"/>
    <use href="#japan-shape-2"/>
    <use href="#japan-shape-3"/>
    <use href="#japan-shape-4"/>
  </g>
  <g id="china-outline" fill="none" stroke="#153C33" stroke-width="1.8" stroke-linejoin="round">
    <use href="#china-shape-1"/>
    <use href="#china-shape-2"/>
  </g>
</svg>
