<svg xmlns="http://www.w3.org/2000/svg" width="1024" height="1024" viewBox="0 0 1024 1024">
  <defs>
    <clipPath id="k-upper-half">
      <rect width="1024" height="512"/>
    </clipPath>
    <clipPath id="k-lower-half">
      <rect y="512" width="1024" height="512"/>
    </clipPath>
  </defs>
  <rect id="icon-background" width="1024" height="1024" fill="#FFFFFF"/>
  <g id="letter-k">
    <path id="k-top" clip-path="url(#k-upper-half)" fill="#CD2E3A" d="M112 250h92v207l151-207h112L292 485l184 289H367L235 556l-31 41v177h-92Z"/>
    <path id="k-bottom" clip-path="url(#k-lower-half)" fill="#0047A0" d="M112 250h92v207l151-207h112L292 485l184 289H367L235 556l-31 41v177h-92Z"/>
  </g>
  <path id="letter-j" fill="#BC002D" d="M435 250h221v359c0 113-63 175-169 175-76 0-132-35-164-98l79-46c18 37 43 56 79 56 54 0 80-29 80-92V339H435Z"/>
  <path id="letter-c" fill="none" stroke="#DE2910" stroke-width="92" stroke-linecap="round" d="M907 363a190 190 0 1 0 0 298"/>
</svg>
